<svg id="Layer_1" data-name="Layer 1" xmlns="http://www.w3.org/2000/svg" viewBox="0 0 157.05 79.41"><defs><style>.c2{fill:#000001;}</style></defs><path class="c2" d="M128,34.67l10-23.8c-9-6.41-22.58-7.7-32.74-2.95Z"/><path class="c2" d="M129.12,35.8l0,0-.23.5h23.82a33.88,33.88,0,0,0-13.52-24.57Z"/><path class="c2" d="M118.53,25.93,103.82,8.59C88,15.87,80.13,37.43,88.27,53.47Z"/><path class="c2" d="M107.82,37.92,89.05,55A34.07,34.07,0,0,0,124,72.52Z"/><path class="c2" d="M116.29,46.75v-.07h-2.54l11.92,25.54A34,34,0,0,0,152,46.75Z"/><polygon class="c2" points="7.71 7.96 7.71 66.26 7.77 66.26 40.58 34.13 7.71 7.96"/><polygon class="c2" points="41.74 36.38 41.73 36.37 8.91 68.5 74.63 68.3 74.63 7.99 41.74 36.38"/></svg>